# Apple ModelIO OBJ File: baseBox
mtllib baseBox.mtl
g 
v -3.91694 -3.1747 -9.16568
v 3.91694 -3.1747 -9.16568
v 3.91694 -3.1747 6.41888
v -3.91694 -3.1747 6.41888
vn 0 -1 0
vt 0.125 0.5
vt 0.375 0.5
vt 0.375 0.75
vt 0.125 0.75
usemtl material_1
f 1/1/1 2/2/1 3/3/1 4/4/1 
s off
g _1
v -3.91694 -3.1747 6.41888
v -3.91694 3.1747 6.41888
v -3.91694 3.1747 -9.16568
v -3.91694 -3.1747 -9.16568
vn -1 0 0
vt 0.375 0
vt 0.625 0
vt 0.625 0.25
vt 0.375 0.25
usemtl material_2
f 5/5/2 6/6/2 7/7/2 8/8/2 
s off
g _2
v 3.91694 -3.1747 -9.16568
v 3.91694 3.1747 -9.16568
v 3.91694 3.1747 6.41888
v 3.91694 -3.1747 6.41888
vn 1 0 0
vt 0.375 0.5
vt 0.625 0.5
vt 0.625 0.75
vt 0.375 0.75
usemtl material_3
f 9/9/3 10/10/3 11/11/3 12/12/3 
s off
g _3
v 3.91694 -3.1747 6.41888
v 3.91694 3.1747 6.41888
v -3.91694 3.1747 6.41888
v -3.91694 -3.1747 6.41888
vn 0 0 1
vt 0.375 0.75
vt 0.625 0.75
vt 0.625 1
vt 0.375 1
usemtl material_4
f 13/13/4 14/14/4 15/15/4 16/16/4 
s off
g _4
v 3.91694 3.1747 -9.16568
v -3.91694 3.1747 -9.16568
v -3.91694 3.1747 6.41888
v 3.91694 3.1747 6.41888
vn 0 1 0
vt 0.625 0.5
vt 0.875 0.5
vt 0.875 0.75
vt 0.625 0.75
usemtl material_5
f 17/17/5 18/18/5 19/19/5 20/20/5 
s off
g _5
v -3.91694 -3.1747 -9.16568
v -3.91694 3.1747 -9.16568
v 3.91694 3.1747 -9.16568
v 3.91694 -3.1747 -9.16568
vn 0 0 -1
vt 0.375 0.25
vt 0.625 0.25
vt 0.625 0.5
vt 0.375 0.5
usemtl material_6
f 21/21/6 22/22/6 23/23/6 24/24/6 
s off
g _6
v -0.758223 3.13519 0.758223
v -0.758223 3.30898 0.758223
v -0.758223 3.30898 -0.758223
v -0.758223 3.13519 -0.758223
v 0.758223 3.30898 -0.758223
v 0.758223 3.13519 -0.758223
v 0.758223 3.30898 0.758223
v 0.758223 3.13519 0.758223
vn -1 0 0
vn 0 0 -1
vn 1 0 0
vn 0 0 1
vn 0 -1 0
vt 0.375 0
vt 0.625 0
vt 0.625 0.25
vt 0.375 0.25
vt 0.625 0.5
vt 0.375 0.5
vt 0.625 0.75
vt 0.375 0.75
vt 0.625 1
vt 0.375 1
vt 0.125 0.5
vt 0.125 0.75
usemtl material_7
f 25/25/7 26/26/7 27/27/7 28/28/7 
f 28/28/8 27/27/8 29/29/8 30/30/8 
f 30/30/9 29/29/9 31/31/9 32/32/9 
f 32/32/10 31/31/10 26/33/10 25/34/10 
f 28/35/11 30/30/11 32/32/11 25/36/11 
s off
